<svg xmlns="http://www.w3.org/2000/svg" width="256" height="256" viewBox="0 0 256 256" role="img" aria-labelledby="title desc">
  <title id="title">UAS Doctoral Tech logo</title>
  <desc id="desc">A compact drone and connection mark for ArduPilot UAV Lab.</desc>
  <rect width="256" height="256" rx="40" fill="#ffffff"/>
  <circle cx="128" cy="118" r="47" fill="#e8f7f5" stroke="#138a83" stroke-width="8"/>
  <path d="M128 69v98M79 118h98M94 84l68 68M162 84l-68 68" stroke="#1e2930" stroke-width="10" stroke-linecap="round"/>
  <circle cx="60" cy="118" r="22" fill="#ffffff" stroke="#138a83" stroke-width="9"/>
  <circle cx="196" cy="118" r="22" fill="#ffffff" stroke="#138a83" stroke-width="9"/>
  <circle cx="128" cy="50" r="22" fill="#ffffff" stroke="#138a83" stroke-width="9"/>
  <circle cx="128" cy="186" r="22" fill="#ffffff" stroke="#138a83" stroke-width="9"/>
  <rect x="104" y="94" width="48" height="48" rx="12" fill="#ffffff" stroke="#2d6cdf" stroke-width="7"/>
  <path d="M119 118h18M128 109v18" stroke="#2d6cdf" stroke-width="7" stroke-linecap="round"/>
  <path d="M42 203h64c12 0 18-6 18-18v-14" fill="none" stroke="#138a83" stroke-width="10" stroke-linecap="round"/>
  <path d="M37 189l-18 14 18 14M86 188v30M101 188v30" fill="none" stroke="#138a83" stroke-width="8" stroke-linecap="round" stroke-linejoin="round"/>
  <text x="128" y="226" text-anchor="middle" font-family="Inter,Segoe UI,Arial,sans-serif" font-size="18" font-weight="800" fill="#1e2930">UAS Doctoral Tech</text>
</svg>
